<svg fill="none" height="25" viewBox="0 0 68 25" width="68" xmlns="http://www.w3.org/2000/svg">
    <path
        d="M1 20.2472V16.5472H8.47654V1.50048C8.47654 1.50048 12.7021 0.374397 15.0862 1.50048C16.5949 2.21306 17.5943 2.84047 18.4453 4.33715C20.5489 8.03716 19.6319 11.5056 17.0366 13.8338C14.6438 15.9805 9.23503 13.8338 9.23503 13.8338"
        stroke="white" stroke-linecap="round" stroke-width="1.5" />
    <path d="M11.6189 14.5739L16.5199 22.9605L20.179 18.7672" stroke="white" stroke-linecap="round"
        stroke-width="1.5" />
    <path
        d="M26.4636 8.1705C27.6096 8.17056 28.7308 8.85007 29.5984 10.1197C30.4634 11.3856 31.0231 13.1759 31.0232 15.19C31.0232 17.2044 30.4635 18.9953 29.5984 20.2613C28.7308 21.531 27.6096 22.2105 26.4636 22.2105C25.3177 22.2105 24.1965 21.531 23.3289 20.2613C22.4638 18.9953 21.9041 17.2045 21.9041 15.19C21.9041 13.1758 22.4638 11.3856 23.3289 10.1197C24.1965 8.85003 25.3177 8.1705 26.4636 8.1705Z"
        stroke="white" stroke-width="1.5" />
    <path
        d="M33.4826 7.91382C33.4826 7.91382 33.0493 14.5738 33.4826 17.7805C33.9159 20.9872 35.4329 22.0972 36.0831 22.4672C36.7333 22.8372 39.5504 23.4538 40.9591 22.4672C42.3678 21.4805 43.1263 20.2472 43.5597 17.7805C43.9931 15.3138 43.5597 7.91382 43.5597 7.91382"
        stroke="white" stroke-linecap="round" stroke-width="1.5" />
    <path
        d="M46.2596 1.00717C46.2596 1.00717 46.1512 18.6439 46.2596 19.3839C46.3679 20.1239 47.6682 21.4805 48.1016 21.8505C48.535 22.2205 49.495 22.8544 50.4854 22.8372C51.4363 22.8208 51.9927 22.4884 52.7609 21.8505C53.6156 21.1409 54.0078 20.5083 54.3862 19.3839C54.6178 18.6959 54.6926 18.2703 54.7113 17.5339"
        stroke="white" stroke-linecap="round" stroke-width="1.5" />
    <path d="M46.5366 8.16049H54.88" stroke="white" stroke-linecap="round" stroke-width="1.5" />
    <path
        d="M66.9995 17.9792C66.9995 17.9792 66.3712 20.186 65.4825 21.1858C64.6874 22.0804 64.0902 22.5608 62.9903 22.7892C61.9835 22.9983 61.3362 22.8627 60.3898 22.4192C59.6844 22.0886 59.311 21.7917 58.7645 21.1858C57.8693 20.1935 57.5886 19.3474 57.2475 17.9792C56.9803 16.9074 56.9805 15.1425 56.9805 15.1425M56.9805 15.1425C56.9805 15.1425 56.9481 14.3952 56.9805 14.1558C57.2475 12.1825 58.5477 10.0858 58.5477 10.0858C58.5477 10.0858 59.3063 8.83224 60.3898 8.48248C61.1633 8.23281 62.2028 8.05169 62.9903 8.23582C64.0657 8.48722 64.6732 8.87165 65.4825 9.71582C66.0243 10.2809 66.5005 11.0916 66.7828 12.3058C67.0209 13.3302 66.9995 15.1425 66.9995 15.1425H56.9805Z"
        stroke="white" stroke-linecap="round" stroke-width="1.5" />
</svg>
