<svg fill="none" height="25" viewBox="0 0 68 25" width="68" xmlns="http://www.w3.org/2000/svg">
    <path
        d="M1 20.2472V16.5472H8.47654V1.50048C8.47654 1.50048 12.7021 0.374397 15.0862 1.50048C16.5949 2.21306 17.5943 2.84047 18.4453 4.33715C20.5489 8.03716 19.6319 11.5056 17.0366 13.8338C14.6438 15.9805 9.23503 13.8338 9.23503 13.8338"
        stroke="#004182" stroke-linecap="round" stroke-width="1.5" />
    <path d="M11.6191 14.5739L16.5202 22.9605L20.1792 18.7672" stroke="#004182" stroke-linecap="round"
        stroke-width="1.5" />
    <path
        d="M26.4639 8.1705C27.6098 8.17056 28.7311 8.85007 29.5986 10.1197C30.4636 11.3856 31.0233 13.1759 31.0234 15.19C31.0234 17.2044 30.4637 18.9953 29.5986 20.2613C28.7311 21.531 27.6098 22.2105 26.4639 22.2105C25.3179 22.2105 24.1967 21.531 23.3291 20.2613C22.464 18.9953 21.9043 17.2045 21.9043 15.19C21.9044 13.1758 22.4641 11.3856 23.3291 10.1197C24.1967 8.85003 25.3179 8.1705 26.4639 8.1705Z"
        stroke="#004182" stroke-width="1.5" />
    <path
        d="M33.4826 7.91382C33.4826 7.91382 33.0493 14.5738 33.4826 17.7805C33.9159 20.9872 35.4329 22.0972 36.0831 22.4672C36.7333 22.8372 39.5504 23.4538 40.9591 22.4672C42.3678 21.4805 43.1263 20.2472 43.5597 17.7805C43.9931 15.3138 43.5597 7.91382 43.5597 7.91382"
        stroke="#004182" stroke-linecap="round" stroke-width="1.5" />
    <path
        d="M46.2596 1.00717C46.2596 1.00717 46.1512 18.6439 46.2596 19.3839C46.3679 20.1239 47.6682 21.4805 48.1016 21.8505C48.535 22.2205 49.495 22.8544 50.4854 22.8372C51.4363 22.8208 51.9927 22.4884 52.7609 21.8505C53.6156 21.1409 54.0078 20.5083 54.3862 19.3839C54.6178 18.6959 54.6926 18.2703 54.7113 17.5339"
        stroke="#004182" stroke-linecap="round" stroke-width="1.5" />
    <path d="M46.5366 8.16049H54.88" stroke="#004182" stroke-linecap="round" stroke-width="1.5" />
    <path
        d="M66.9993 17.9792C66.9993 17.9792 66.371 20.186 65.4823 21.1858C64.6872 22.0804 64.0899 22.5608 62.9901 22.7892C61.9832 22.9983 61.336 22.8627 60.3896 22.4192C59.6842 22.0886 59.3107 21.7917 58.7642 21.1858C57.8691 20.1935 57.5884 19.3474 57.2472 17.9792C56.98 16.9074 56.9802 15.1425 56.9802 15.1425M56.9802 15.1425C56.9802 15.1425 56.9478 14.3952 56.9802 14.1558C57.2472 12.1825 58.5475 10.0858 58.5475 10.0858C58.5475 10.0858 59.306 8.83224 60.3896 8.48248C61.1631 8.23281 62.2025 8.05169 62.9901 8.23582C64.0654 8.48722 64.6729 8.87165 65.4823 9.71582C66.024 10.2809 66.5003 11.0916 66.7825 12.3058C67.0207 13.3302 66.9993 15.1425 66.9993 15.1425H56.9802Z"
        stroke="#004182" stroke-linecap="round" stroke-width="1.5" />
</svg>
